<svg xmlns="http://www.w3.org/2000/svg" width="316.1" height="172.351" viewBox="0 0 316.1 172.351">
  <g id="Group_149" data-name="Group 149" transform="translate(20241.137 10340.962)">
    <path id="Path_8405" data-name="Path 8405" d="M5.5,0h285a5.5,5.5,0,0,1,0,11H5.5a5.5,5.5,0,0,1,0-11Z" transform="translate(-20206.949 -10239.724) rotate(-20)" fill="#5629b7"/>
    <path id="Path_8407" data-name="Path 8407" d="M5.5,0h144a5.5,5.5,0,0,1,0,11H5.5a5.5,5.5,0,0,1,0-11Z" transform="translate(-20206.453 -10178.948) rotate(-20)" fill="#f5473e"/>
    <path id="Path_8408" data-name="Path 8408" d="M5.5,0A5.5,5.5,0,1,1,0,5.5,5.5,5.5,0,0,1,5.5,0Z" transform="translate(-20038.137 -10240.199) rotate(-20)" fill="#5629b7"/>
    <path id="Path_8406" data-name="Path 8406" d="M5.5,0A5.5,5.5,0,1,1,0,5.5,5.5,5.5,0,0,1,5.5,0Z" transform="translate(-20241.137 -10226.199) rotate(-20)" fill="#5629b7"/>
  </g>
</svg>
